<?xml version="1.0" encoding="UTF-8"?>
<svg width="60px" height="60px" viewBox="0 0 60 60" version="1.1" xmlns="http://www.w3.org/2000/svg" xmlns:xlink="http://www.w3.org/1999/xlink">
    <!-- Generator: Sketch 52.5 (67469) - http://www.bohemiancoding.com/sketch -->
    <title>icon3</title>
    <desc>Created with Sketch.</desc>
    <g id="icon3" stroke="none" stroke-width="1" fill="none" fill-rule="evenodd">
        <g id="jiazhi" transform="translate(0.000000, 2.000000)">
            <path d="M59.4521158,14.545657 L52.4365256,1.844098 C51.8084633,0.70155902 50.6458797,0 49.3964365,0 L10.6035635,0 C9.34743875,0 8.19153675,0.70155902 7.56347439,1.844098 L0.547884187,14.545657 C-0.187082405,15.8685969 -0.0734966592,17.5389755 0.83518931,18.7349666 L27.247216,53.7995546 C27.9487751,54.7349666 28.9777283,55.2026726 30.0066815,55.2026726 C31.0356347,55.2026726 32.0579065,54.7349666 32.766147,53.7995546 L59.1781737,18.7349666 C60.0734967,17.5389755 60.1870824,15.8752784 59.4521158,14.545657 Z M56.6057906,16.8106904 L30.1937639,51.8752784 C30.1002227,52.0022272 30.0267261,52.0022272 30,52.0022272 C29.9732739,52.0022272 29.8997773,52.0022272 29.8062361,51.8752784 L3.39420935,16.8106904 C3.24721604,16.6169265 3.23385301,16.3162584 3.35412027,16.0957684 L10.3697105,3.39420935 C10.4432071,3.26057906 10.5367483,3.20712695 10.6035635,3.20712695 L49.389755,3.20712695 C49.4565702,3.20712695 49.5501114,3.26726058 49.623608,3.39420935 L56.6391982,16.0957684 C56.766147,16.3162584 56.752784,16.6169265 56.6057906,16.8106904 Z" id="形状" stroke="#39485E" stroke-width="2" fill="#39485E" fill-rule="nonzero"></path>
            <path d="M45.5011136,13.2293987 L14.4988864,13.2293987 C13.610245,13.2293987 12.8953229,13.9443207 12.8953229,14.8329621 C12.8953229,15.7216036 13.610245,16.4365256 14.4988864,16.4365256 L45.5011136,16.4365256 C46.389755,16.4365256 47.1046771,15.7216036 47.1046771,14.8329621 C47.1046771,13.9443207 46.389755,13.2293987 45.5011136,13.2293987 Z" id="路径" stroke="#0078FF" fill="#0078FF"></path>
        </g>
    </g>
</svg>