<?xml version="1.0" encoding="UTF-8"?>
<svg width="60px" height="60px" viewBox="0 0 60 60" version="1.1" xmlns="http://www.w3.org/2000/svg" xmlns:xlink="http://www.w3.org/1999/xlink">
    <!-- Generator: Sketch 52.5 (67469) - http://www.bohemiancoding.com/sketch -->
    <title>icon1</title>
    <desc>Created with Sketch.</desc>
    <g id="icon1" stroke="none" stroke-width="1" fill="none" fill-rule="evenodd">
        <g id="yunshujuku" transform="translate(0.000000, 1.000000)">
            <g id="icon--quanxian">
                <path d="M58.8971154,48.9604808 C58.5577707,47.8402003 57.3976992,47.1845906 56.2629283,47.4717806 C55.1281574,47.7589707 54.4196172,48.8874922 54.6540385,50.0343269 C54.9894231,51.3697115 55.2201923,52.7327885 55.3401923,54.1143269 L4.51865385,54.1143269 C5.62634615,41.1266346 16.5125,30.8927885 29.7648077,30.8097115 C29.8201923,30.8097115 29.8694231,30.8250962 29.9248077,30.8250962 C38.4214962,30.8250962 45.3094231,23.9371692 45.3094231,15.4404808 C45.3094231,6.94379231 38.4214962,0.0558653846 29.9248077,0.0558653846 C21.4281192,0.0558653846 14.5401923,6.94379231 14.5401923,15.4404808 C14.5401923,20.5420192 17.0509615,25.03125 20.8755769,27.8281731 C8.81096154,31.67125 0.0417307692,42.9789423 0.0417307692,56.3020192 C0.0417307692,57.51125 1.02326923,58.4927885 2.2325,58.4927885 L57.6171154,58.4927885 C58.8270438,58.4927885 59.8078846,57.5119477 59.8078846,56.3020192 C59.8114982,53.826443 59.5055348,51.36013 58.8971154,48.9604808 Z M29.9278846,4.67740385 C35.8663462,4.67740385 40.6971154,9.50817308 40.6971154,15.4466346 C40.6971154,21.3850962 35.8663462,26.2158654 29.9278846,26.2158654 C23.9894231,26.2158654 19.1586538,21.3850962 19.1586538,15.4466346 C19.1586538,9.50817308 23.9894231,4.67740385 29.9278846,4.67740385 Z" id="形状" fill="#39485E" fill-rule="nonzero"></path>
                <path d="M33.9986538,37.4620192 C33.0971552,36.5605206 31.6355371,36.5605206 30.7340385,37.4620192 C29.8325398,38.3635179 29.8325398,39.825136 30.7340385,40.7266346 L38.5371154,48.5266346 C38.9690059,48.9603011 39.5558421,49.2040823 40.1678846,49.2040823 C40.7799271,49.2040823 41.3667633,48.9603011 41.7986538,48.5266346 L58.3032692,32.0220192 C59.2047679,31.1205206 59.2047679,29.6589025 58.3032692,28.7574038 C57.4017706,27.8559052 55.9401525,27.8559052 55.0386538,28.7574038 L40.1648077,43.63125 L33.9986538,37.4620192 Z" id="路径" fill="#0078FF"></path>
            </g>
        </g>
    </g>
</svg>