<?xml version="1.0" encoding="UTF-8"?>
<svg width="60px" height="60px" viewBox="0 0 60 60" version="1.1" xmlns="http://www.w3.org/2000/svg" xmlns:xlink="http://www.w3.org/1999/xlink">
    <!-- Generator: Sketch 52.5 (67469) - http://www.bohemiancoding.com/sketch -->
    <title>icon2</title>
    <desc>Created with Sketch.</desc>
    <g id="icon2" stroke="none" stroke-width="1" fill="none" fill-rule="evenodd">
        <g id="qianseban-" transform="translate(0.000000, 4.000000)">
            <path d="M59.6908213,4.63768116 C59.1014493,4.45410628 58.4637681,4.36714976 57.8164251,4.36714976 L10.9275362,4.36714976 C3.79710145,4.36714976 4.4057971,4.28019324 4.4057971,10.8888889 L4.4057971,38.4541063 C4.4057971,39.1304348 4.51207729,39.7874396 4.70531401,40.4057971 C5.29468599,40.589372 5.93236715,40.6763285 6.57971014,40.6763285 L27.2657005,40.6763285 C27.4782609,40.6763285 27.6521739,40.8502415 27.6521739,41.0628019 L27.6521739,44.9758454 L31.6135266,44.9758454 C31.826087,44.9758454 32,45.1497585 32,45.3623188 L32,50.8792271 C32,51.0917874 31.826087,51.2657005 31.6135266,51.2657005 L21.9613527,51.2657005 C21.4396135,51.2657005 20.9661836,51.4299517 20.5797101,51.7101449 L42.4444444,51.7101449 C42.9661836,51.7101449 43.4396135,51.5458937 43.826087,51.2657005 L37.1304348,51.2657005 C36.9178744,51.2657005 36.7439614,51.0917874 36.7439614,50.8792271 L36.7439614,46.9661836 L32.7826087,46.9661836 C32.5700483,46.9661836 32.3961353,46.7922705 32.3961353,46.5797101 L32.3961353,41.0628019 C32.3961353,40.8502415 32.5700483,40.6763285 32.7826087,40.6763285 L53.468599,40.6763285 C54.3091787,40.6763285 55.1014493,40.5217391 55.8454106,40.2318841 L10.9275362,40.2318841 C9.95169082,40.2318841 9.14975845,39.4396135 9.14975845,38.4541063 L9.14975845,10.8888889 C9.14975845,9.91304348 9.94202899,9.11111111 10.9275362,9.11111111 L57.8164251,9.11111111 C58.7922705,9.11111111 59.5942029,9.90338164 59.5942029,10.8888889 L59.5942029,36.4057971 C59.8550725,35.7101449 59.9903382,34.9468599 59.9903382,34.1642512 L59.9903382,6.58937198 C59.9903382,5.91304348 59.884058,5.25603865 59.6908213,4.63768116 Z" id="路径" fill="#F6F6F6"></path>
            <path d="M43.4879227,12.9661836 C44.3478261,13.826087 44.3478261,15.2173913 43.4879227,16.0772947 L35.7874396,23.7294686 L34.2318841,25.2753623 C33.8164251,25.6811594 33.2657005,25.9130435 32.6859903,25.9130435 L32.6763285,25.9130435 C32.1352657,25.9130435 31.6038647,25.7004831 31.1980676,25.3333333 C31.1690821,25.3140097 31.1497585,25.2850242 31.1207729,25.2657005 L30.8792271,25.0241546 L27.7874396,21.9033816 L27.5072464,21.6135266 L19.6714976,29.3333333 C19.2560386,29.7391304 18.705314,29.9613527 18.1256039,29.9613527 C17.5362319,29.9613527 16.9758454,29.7294686 16.5603865,29.3140097 C16.1449275,28.8985507 15.9227053,28.3478261 15.9227053,27.7584541 C15.9227053,27.1690821 16.1545894,26.6183575 16.5797101,26.2125604 L25.9806763,16.9565217 C26.3961353,16.5507246 26.9468599,16.3285024 27.52657,16.3285024 C28.115942,16.3285024 28.6763285,16.5603865 29.0917874,16.9758454 L32.3768116,20.2898551 L32.705314,20.6183575 L40.4057971,12.9758454 C41.2463768,12.1062802 42.6280193,12.1062802 43.4879227,12.9661836 Z" id="路径" fill="#0078FF"></path>
            <path d="M59.6908213,4.63768116 C58.8599034,1.99033816 56.3864734,0.0676328502 53.468599,0.0676328502 L6.57971014,0.0676328502 C2.98550725,0.0676328502 0.0579710145,2.99516908 0.0579710145,6.58937198 L0.0579710145,34.1545894 C0.0579710145,37.1014493 2.01932367,39.5942029 4.70531401,40.4057971 C5.29468599,40.589372 5.93236715,40.6763285 6.57971014,40.6763285 L27.2657005,40.6763285 C27.4782609,40.6763285 27.6521739,40.8502415 27.6521739,41.0628019 L27.6521739,46.5797101 C27.6521739,46.7922705 27.4782609,46.9661836 27.2657005,46.9661836 L17.6135266,46.9661836 C16.3091787,46.9661836 15.236715,48.0289855 15.236715,49.3429952 C15.236715,50.6570048 16.2995169,51.7198068 17.6135266,51.7198068 L42.4444444,51.7198068 C42.9661836,51.7198068 43.4396135,51.5555556 43.826087,51.2753623 C44.4251208,50.8405797 44.8115942,50.1449275 44.8115942,49.352657 C44.8115942,48.0483092 43.7487923,46.9758454 42.4347826,46.9758454 L32.7826087,46.9758454 C32.5700483,46.9758454 32.3961353,46.8019324 32.3961353,46.589372 L32.3961353,41.0724638 C32.3961353,40.8599034 32.5700483,40.6859903 32.7826087,40.6859903 L53.468599,40.6859903 C54.3091787,40.6859903 55.1014493,40.531401 55.8454106,40.2415459 C57.5748792,39.5652174 58.9565217,38.1642512 59.5942029,36.4154589 C59.8550725,35.7198068 59.9903382,34.9565217 59.9903382,34.173913 L59.9903382,6.58937198 C59.9903382,5.91304348 59.884058,5.25603865 59.6908213,4.63768116 Z M4.8115942,34.1642512 L4.8115942,6.58937198 C4.8115942,5.61352657 5.60386473,4.8115942 6.58937198,4.8115942 L53.4782609,4.8115942 C54.4541063,4.8115942 55.2560386,5.60386473 55.2560386,6.58937198 L55.2560386,34.1545894 C55.2560386,35.1304348 54.4637681,35.9323671 53.4782609,35.9323671 L6.57971014,35.9323671 C5.60386473,35.9323671 4.8115942,35.1400966 4.8115942,34.1642512 Z" id="形状" fill="#39485E" fill-rule="nonzero"></path>
        </g>
    </g>
</svg>